<svg xmlns="http://www.w3.org/2000/svg" xmlns:xlink="http://www.w3.org/1999/xlink" version="1.1" data-diagram-type="DESCRIPTION" style="width:594px;height:1009px;background:#FFFFFF;" width="594px" height="1009px" viewBox="0 0 594 1009" zoomAndPan="magnify" preserveAspectRatio="none" contentStyleType="text/css"><?plantuml 1.2026.7?><defs/><g font-family="sans-serif" lengthAdjust="spacing"><g class="title" data-source-line="3"><text x="192.648" y="22.995" fill="#000" font-size="14" textLength="201.879" font-weight="700">Component — user-house</text></g><!--cluster userHouse--><g class="cluster" data-qualified-name="userHouse" id="ent0001" data-source-line="1690"><rect x="7" y="220.297" width="478" height="537" fill="none" style="stroke:#444;stroke-width:1;stroke-dasharray:7,7;"/><text x="195.777" y="237.148" fill="#444" font-size="16" textLength="100.445" font-weight="700">user-house</text><text x="208.292" y="252.061" fill="#444" font-size="12" textLength="75.416" font-weight="700">[container]</text></g><!--entity api--><g class="entity" data-qualified-name="userHouse.api" id="ent0002" data-source-line="83"><rect x="93.5" y="271.297" width="216.636" height="101.484" fill="#85BBF0" style="stroke:#78A8D8;stroke-width:0.5;"/><text x="160.529" y="296.148" fill="#000" font-size="16" textLength="46.945" font-weight="700">HTTP</text><text x="207.474" y="296.148" fill="#000" font-size="16" font-weight="700"> </text><text x="213.044" y="296.148" fill="#000" font-size="16" textLength="30.063" font-weight="700">API</text><text x="187.017" y="311.061" fill="#000" font-size="12" textLength="29.602" font-style="italic">[Gin]</text><text x="199.593" y="326.886" fill="#000" font-size="14"> </text><text x="103.5" y="343.183" fill="#000" font-size="14" textLength="98.328">Регистрация,</text><text x="201.828" y="343.183" fill="#000" font-size="14"> </text><text x="206.278" y="343.183" fill="#000" font-size="14" textLength="47.571">логин,</text><text x="253.85" y="343.183" fill="#000" font-size="14"> </text><text x="258.3" y="343.183" fill="#000" font-size="14" textLength="41.836">дома,</text><text x="151.423" y="359.479" fill="#000" font-size="14" textLength="25.177">кто</text><text x="176.6" y="359.479" fill="#000" font-size="14"> </text><text x="181.05" y="359.479" fill="#000" font-size="14" textLength="71.162">владелец</text></g><!--entity auth--><g class="entity" data-qualified-name="userHouse.auth" id="ent0003" data-source-line="83"><rect x="269.5" y="447.297" width="199.184" height="117.781" fill="#85BBF0" style="stroke:#78A8D8;stroke-width:0.5;"/><text x="293.846" y="472.148" fill="#000" font-size="16" textLength="63.984" font-weight="700">Сессии</text><text x="357.83" y="472.148" fill="#000" font-size="16" font-weight="700"> </text><text x="363.4" y="472.148" fill="#000" font-size="16" font-weight="700">и</text><text x="374.611" y="472.148" fill="#000" font-size="16" font-weight="700"> </text><text x="380.182" y="472.148" fill="#000" font-size="16" textLength="64.156" font-weight="700">доступ</text><text x="356.09" y="487.061" fill="#000" font-size="12" textLength="26.004" font-style="italic">[Go]</text><text x="366.867" y="502.886" fill="#000" font-size="14"> </text><text x="279.5" y="519.183" fill="#000" font-size="14" textLength="55.686">Выдаёт</text><text x="335.186" y="519.183" fill="#000" font-size="14"> </text><text x="339.636" y="519.183" fill="#000" font-size="14" textLength="47.394">токен,</text><text x="387.029" y="519.183" fill="#000" font-size="14"> </text><text x="391.479" y="519.183" fill="#000" font-size="14" textLength="67.204">отвечает</text><text x="290.68" y="535.479" fill="#000" font-size="14" textLength="66.562">Gateway:</text><text x="357.242" y="535.479" fill="#000" font-size="14"> </text><text x="361.692" y="535.479" fill="#000" font-size="14" textLength="32.56">этот</text><text x="394.251" y="535.479" fill="#000" font-size="14"> </text><text x="398.702" y="535.479" fill="#000" font-size="14" textLength="48.802">жилец</text><text x="325.622" y="551.776" fill="#000" font-size="14" textLength="86.939">существует</text></g><!--entity houses--><g class="entity" data-qualified-name="userHouse.houses" id="ent0004" data-source-line="83"><rect x="23.5" y="455.797" width="210.723" height="101.484" fill="#85BBF0" style="stroke:#78A8D8;stroke-width:0.5;"/><text x="104.303" y="480.648" fill="#000" font-size="16" textLength="49.117" font-weight="700">Дома</text><text x="115.859" y="495.561" fill="#000" font-size="12" textLength="26.004" font-style="italic">[Go]</text><text x="126.636" y="511.386" fill="#000" font-size="14"> </text><text x="77.452" y="527.683" fill="#000" font-size="14" textLength="52.746">Список</text><text x="130.198" y="527.683" fill="#000" font-size="14"> </text><text x="134.648" y="527.683" fill="#000" font-size="14" textLength="45.623">домов</text><text x="33.5" y="543.979" fill="#000" font-size="14" textLength="106.347">пользователя,</text><text x="139.847" y="543.979" fill="#000" font-size="14"> </text><text x="144.297" y="543.979" fill="#000" font-size="14" textLength="79.926">self-service</text></g><!--entity repo--><g class="entity" data-qualified-name="userHouse.repo" id="ent0005" data-source-line="83"><rect x="127.5" y="640.297" width="191.295" height="101.484" fill="#85BBF0" style="stroke:#78A8D8;stroke-width:0.5;"/><text x="163.511" y="665.148" fill="#000" font-size="16" textLength="119.273" font-weight="700">Репозиторий</text><text x="207.298" y="680.061" fill="#000" font-size="12" textLength="31.699" font-style="italic">[pgx]</text><text x="220.922" y="695.886" fill="#000" font-size="14"> </text><text x="137.5" y="712.183" fill="#000" font-size="14" textLength="108.397">Пользователи,</text><text x="245.897" y="712.183" fill="#000" font-size="14"> </text><text x="250.348" y="712.183" fill="#000" font-size="14" textLength="58.447">токены,</text><text x="204.455" y="728.479" fill="#000" font-size="14" textLength="37.386">дома</text></g><!--entity db--><g class="entity" data-qualified-name="db" id="ent0006" data-source-line="92"><path d="M148,828.297 C148,818.297 222.996,818.297 222.996,818.297 C222.996,818.297 297.992,818.297 297.992,828.297 L297.992,869.891 C297.992,879.891 222.996,879.891 222.996,879.891 C222.996,879.891 148,879.891 148,869.891 L148,828.297" style="stroke:#A6A6A6;stroke-width:0.5;" fill="#B3B3B3"/><path d="M148,828.297 C148,838.297 222.996,838.297 222.996,838.297 C222.996,838.297 297.992,838.297 297.992,828.297" style="stroke:#A6A6A6;stroke-width:0.5;" fill="none"/><text x="158" y="857.148" fill="#FFF" font-size="16" textLength="129.992" font-weight="700">pg-user-house</text><text x="183.706" y="872.061" fill="#FFF" font-size="12" textLength="78.58" font-style="italic">[PostgreSQL]</text></g><!--entity gw--><g class="entity" data-qualified-name="gw" id="ent0007" data-source-line="88"><rect x="205.5" y="44.297" width="172.981" height="101.484" fill="#B3B3B3" style="stroke:#A6A6A6;stroke-width:0.5;"/><text x="234.956" y="69.148" fill="#FFF" font-size="16" textLength="30.063" font-weight="700">API</text><text x="265.018" y="69.148" fill="#FFF" font-size="16" font-weight="700"> </text><text x="270.588" y="69.148" fill="#FFF" font-size="16" textLength="78.438" font-weight="700">Gateway</text><text x="247.416" y="84.061" fill="#FFF" font-size="12" textLength="43.219" font-style="italic">[HTTPS</text><text x="290.634" y="84.061" fill="#FFF" font-size="12" font-style="italic"> </text><text x="294.449" y="84.061" fill="#FFF" font-size="12" font-style="italic">/</text><text x="298.492" y="84.061" fill="#FFF" font-size="12" font-style="italic"> </text><text x="302.306" y="84.061" fill="#FFF" font-size="12" textLength="34.26" font-style="italic">JSON]</text><text x="289.766" y="99.886" fill="#FFF" font-size="14"> </text><text x="215.5" y="116.183" fill="#FFF" font-size="14" textLength="78.921">Проверяет</text><text x="294.421" y="116.183" fill="#FFF" font-size="14"> </text><text x="298.871" y="116.183" fill="#FFF" font-size="14" textLength="47.394">токен,</text><text x="346.265" y="116.183" fill="#FFF" font-size="14"> </text><text x="350.715" y="116.183" fill="#FFF" font-size="14" textLength="17.767">не</text><text x="246.159" y="132.479" fill="#FFF" font-size="14" textLength="60.375">логинит</text><text x="306.534" y="132.479" fill="#FFF" font-size="14"> </text><text x="310.984" y="132.479" fill="#FFF" font-size="14" textLength="26.838">сам</text></g><!--link gw to api--><g class="link" data-entity-1="ent0007" data-entity-2="ent0002" id="lnk8" data-source-line="1803" data-link-type="dependency"><path d="M250.94,145.617 C244.55,155.067 238.56,165.177 234,175.297 C220.35,205.597 213.598,234.236 208.998,263.116" style="stroke:#666;stroke-width:1;" fill="none" id="gw-to-api"/><polygon points="207.74,271.017,211.961,263.588,206.036,262.645,207.74,271.017" fill="#666" style="stroke:#666;stroke-width:1;stroke-linejoin:miter;stroke-miterlimit:10;"/><text x="235" y="187.436" fill="#666" font-size="12" textLength="41.18" font-weight="700">Логин</text><text x="276.18" y="187.436" fill="#666" font-size="12" font-weight="700"> </text><text x="280.357" y="187.436" fill="#666" font-size="12" font-weight="700">и</text><text x="288.766" y="187.436" fill="#666" font-size="12" font-weight="700"> </text><text x="292.943" y="187.436" fill="#666" font-size="12" textLength="61.816" font-weight="700">профиль</text><text x="258.042" y="201.404" fill="#666" font-size="12" textLength="35.602" font-style="italic">[HTTP</text><text x="293.644" y="201.404" fill="#666" font-size="12" font-style="italic"> </text><text x="297.458" y="201.404" fill="#666" font-size="12" textLength="34.26" font-style="italic">JSON]</text></g><!--link gw to auth--><g class="link" data-entity-1="ent0007" data-entity-2="ent0003" id="lnk9" data-source-line="1803" data-link-type="dependency"><path d="M342.23,145.557 C349.01,154.787 355,164.847 359,175.297 C393.4,265.237 387.956,371.309 379.456,439.069" style="stroke:#666;stroke-width:1;" fill="none" id="gw-to-auth"/><polygon points="378.46,447.007,382.432,439.442,376.479,438.696,378.46,447.007" fill="#666" style="stroke:#666;stroke-width:1;stroke-linejoin:miter;stroke-miterlimit:10;"/><text x="386" y="319.436" fill="#666" font-size="12" textLength="41.004" font-weight="700">Токен</text><text x="427.004" y="319.436" fill="#666" font-size="12" font-weight="700"> </text><text x="431.182" y="319.436" fill="#666" font-size="12" textLength="49.154" font-weight="700">живой,</text><text x="480.336" y="319.436" fill="#666" font-size="12" font-weight="700"> </text><text x="484.514" y="319.436" fill="#666" font-size="12" textLength="41.039" font-weight="700">какой</text><text x="525.553" y="319.436" fill="#666" font-size="12" font-weight="700"> </text><text x="529.73" y="319.436" fill="#666" font-size="12" textLength="48.445" font-weight="700">user_id</text><text x="445.25" y="333.404" fill="#666" font-size="12" textLength="35.602" font-style="italic">[HTTP</text><text x="480.852" y="333.404" fill="#666" font-size="12" font-style="italic"> </text><text x="484.666" y="333.404" fill="#666" font-size="12" textLength="34.26" font-style="italic">JSON]</text></g><!--link api to auth--><g class="link" data-entity-1="ent0002" data-entity-2="ent0003" id="lnk10" data-source-line="1803" data-link-type="dependency"><path d="M223.72,372.437 C231.69,387.707 241.6,403.987 253,417.297 C262.04,427.857 266.475,432.743 277.405,442.073" style="stroke:#666;stroke-width:1;" fill="none" id="api-to-auth"/><polygon points="283.49,447.267,279.353,439.791,275.458,444.355,283.49,447.267" fill="#666" style="stroke:#666;stroke-width:1;stroke-linejoin:miter;stroke-miterlimit:10;"/><text x="254" y="414.436" fill="#666" font-size="12" textLength="41.18" font-weight="700">Логин</text><text x="295.18" y="414.436" fill="#666" font-size="12" font-weight="700"> </text><text x="299.357" y="414.436" fill="#666" font-size="12" font-weight="700">/</text><text x="303.74" y="414.436" fill="#666" font-size="12" font-weight="700"> </text><text x="307.918" y="414.436" fill="#666" font-size="12" textLength="46.178" font-weight="700">логаут</text></g><!--link api to houses--><g class="link" data-entity-1="ent0002" data-entity-2="ent0004" id="lnk11" data-source-line="1803" data-link-type="dependency"><path d="M144.07,372.547 C136.71,381.647 130.26,391.667 126,402.297 C119.34,418.897 117.763,430.268 119.023,447.688" style="stroke:#666;stroke-width:1;" fill="none" id="api-to-houses"/><polygon points="119.6,455.667,122.015,447.471,116.031,447.904,119.6,455.667" fill="#666" style="stroke:#666;stroke-width:1;stroke-linejoin:miter;stroke-miterlimit:10;"/><text x="127" y="414.436" fill="#666" font-size="12" textLength="37.752" font-weight="700">CRUD</text><text x="164.752" y="414.436" fill="#666" font-size="12" font-weight="700"> </text><text x="168.93" y="414.436" fill="#666" font-size="12" textLength="43.582" font-weight="700">домов</text></g><!--link auth to repo--><g class="link" data-entity-1="ent0003" data-entity-2="ent0005" id="lnk12" data-source-line="1803" data-link-type="dependency"><path d="M331.94,565.447 C321.74,580.417 310.35,596.257 299,610.297 C290.96,620.247 287.372,624.573 278.412,634.193" style="stroke:#666;stroke-width:1;" fill="none" id="auth-to-repo"/><polygon points="272.96,640.047,280.608,636.237,276.217,632.148,272.96,640.047" fill="#666" style="stroke:#666;stroke-width:1;stroke-linejoin:miter;stroke-miterlimit:10;"/><text x="310" y="607.436" fill="#666" font-size="12" textLength="48.252" font-weight="700">Читает</text><text x="358.252" y="607.436" fill="#666" font-size="12" font-weight="700"> </text><text x="362.43" y="607.436" fill="#666" font-size="12" font-weight="700">и</text><text x="370.838" y="607.436" fill="#666" font-size="12" font-weight="700"> </text><text x="375.016" y="607.436" fill="#666" font-size="12" textLength="44.537" font-weight="700">пишет</text></g><!--link houses to repo--><g class="link" data-entity-1="ent0004" data-entity-2="ent0005" id="lnk13" data-source-line="1803" data-link-type="dependency"><path d="M154.69,557.167 C167.95,582.917 180.426,607.135 193.686,632.875" style="stroke:#666;stroke-width:1;" fill="none" id="houses-to-repo"/><polygon points="197.35,639.987,196.353,631.501,191.019,634.249,197.35,639.987" fill="#666" style="stroke:#666;stroke-width:1;stroke-linejoin:miter;stroke-miterlimit:10;"/><text x="183" y="607.436" fill="#666" font-size="12" textLength="48.252" font-weight="700">Читает</text><text x="231.252" y="607.436" fill="#666" font-size="12" font-weight="700"> </text><text x="235.43" y="607.436" fill="#666" font-size="12" font-weight="700">и</text><text x="243.838" y="607.436" fill="#666" font-size="12" font-weight="700"> </text><text x="248.016" y="607.436" fill="#666" font-size="12" textLength="44.537" font-weight="700">пишет</text></g><!--link repo to db--><g class="link" data-entity-1="ent0005" data-entity-2="ent0006" id="lnk14" data-source-line="1803" data-link-type="dependency"><path d="M223,741.317 C223,766.567 223,788.457 223,810.217" style="stroke:#666;stroke-width:1;" fill="none" id="repo-to-db"/><polygon points="223,818.217,226,810.217,220,810.217,223,818.217" fill="#666" style="stroke:#666;stroke-width:1;stroke-linejoin:miter;stroke-miterlimit:10;"/><text x="224" y="785.436" fill="#666" font-size="12" textLength="26.49" font-weight="700">SQL</text></g><g class="legend" data-source-line="1577"><rect x="402.729" y="917.891" width="167.446" height="16.297" fill="none" style="stroke:none;"/><text x="402.729" y="930.886" fill="#000" font-size="14" textLength="57.921" font-weight="700">Legend</text><text x="465.524" y="930.886" fill="#FFF" font-size="14"> </text><rect x="402.729" y="934.188" width="167.446" height="16.297" fill="#85BBF0" style="stroke:none;"/><text x="407.18" y="947.183" fill="#78A8D8" font-size="14">▯</text><text x="414.884" y="947.183" fill="#FFF" font-size="14"> </text><text x="423.784" y="947.183" fill="#000" font-size="14" textLength="79.201">component</text><text x="507.436" y="947.183" fill="#FFF" font-size="14"> </text><rect x="402.729" y="950.484" width="167.446" height="16.297" fill="#B3B3B3" style="stroke:none;"/><text x="407.18" y="963.479" fill="#A6A6A6" font-size="14">▯</text><text x="414.884" y="963.479" fill="#FFF" font-size="14"> </text><text x="423.784" y="963.479" fill="#FFF" font-size="14" textLength="128.885">external container</text><text x="557.119" y="963.479" fill="#FFF" font-size="14"> </text><rect x="402.729" y="966.781" width="167.446" height="16.297" fill="none" style="stroke:none;"/><text x="407.18" y="979.776" fill="#444" font-size="14">▯</text><text x="414.884" y="979.776" fill="#FFF" font-size="14"> </text><text x="423.784" y="979.776" fill="#444" font-size="14" textLength="137.491">container boundary</text><text x="565.726" y="979.776" fill="#FFF" font-size="14"> </text><line x1="402.729" y1="917.891" x2="570.176" y2="917.891" style="stroke:none;"/><line x1="402.729" y1="934.188" x2="570.176" y2="934.188" style="stroke:none;"/><line x1="402.729" y1="950.484" x2="570.176" y2="950.484" style="stroke:none;"/><line x1="402.729" y1="966.781" x2="570.176" y2="966.781" style="stroke:none;"/><line x1="402.729" y1="983.078" x2="570.176" y2="983.078" style="stroke:none;"/><line x1="402.729" y1="917.891" x2="402.729" y2="983.078" style="stroke:none;"/><line x1="570.176" y1="917.891" x2="570.176" y2="983.078" style="stroke:none;"/></g><?plantuml-src ZLDDRn9H5DtFhtYoWWGw6rVTAH3GO8kbZKiom0YJ33EJcJVInfW0DQscDOscEnTQDsu9YgMqXR_mtb_mbtZk6mP6suM4vDrtFywvxzup3oodQOSjatKuzu9DNVUDtaRRufsm4GQcttGTRZfye-bsTSys71vsxLp0MxRLqFCFSrLoxJshw5qZuAOFLptlTZtNeHeFkPh6BMwRRELbl_ldZ91p7HU7fkN1O5YEwTSVkw7JClo3D8NB5Csor3erbM6lDORV2YjjU1PIohkxLVQe-YG5ksGvT8YlOY9-YAaSoA7iYv4yWdsMPU9QpCalRc7_X7qZHh1cSYZcJ8mH7i4zmJcHHwdCltGXxn3u1Q83EG3CbD4VG8heK2nK3wvguPCyGMGaFyeX8tmn0p3npd4R0-8OP1C4ImOtUyR19fCVA0yUyGlOgWS6u4FvNX6Y2XIekDEOcaz0fEVHcn9jN8W5pO7uuoVFnPZ1EnVNybHSqXLj3kdPDAF0j5_cCFLNLjEym-IRdXlFbn0kWKqzzz7m5V5vxNr5--K-U37D9aOXJzPB0D6RX1OAZNfndwTR3OMOIuW0ZgeRyBPlrfvNKBMM3nMqUuX32l5CKqjvr9ZEdjQsjwBMqErSRQ0lpzG6_bhFhPWaT4BlmnAmgXkmQJkchKWYvOdFSPhImOA0vLlQdJoDgIFUpBfoAQ9lCMMqxJ6kLoH5CCt8LXz9tMhTXwFOOw1r3thSzmYQ6IPpLmB9x-mL4ZA8SnHKlDllQgUHDjMpS7-tr1rbns3_cn_bgLr6EzDgvUqNzKgnLDmgf3D_0000?></g></svg>