<svg xmlns="http://www.w3.org/2000/svg" xmlns:xlink="http://www.w3.org/1999/xlink" version="1.1" data-diagram-type="DESCRIPTION" style="width:677px;height:1020px;background:#FFFFFF;" width="677px" height="1020px" viewBox="0 0 677 1020" zoomAndPan="magnify" preserveAspectRatio="none" contentStyleType="text/css"><?plantuml 1.2026.7?><defs/><g font-family="sans-serif" lengthAdjust="spacing"><g class="title" data-source-line="3"><text x="240.006" y="22.995" fill="#000" font-size="14" textLength="190.518" font-weight="700">Component — command</text></g><!--cluster command--><g class="cluster" data-qualified-name="command" id="ent0001" data-source-line="1690"><rect x="7" y="204.297" width="485" height="534" fill="none" style="stroke:#444;stroke-width:1;stroke-dasharray:7,7;"/><text x="205.77" y="221.148" fill="#444" font-size="16" textLength="87.461" font-weight="700">command</text><text x="211.792" y="236.061" fill="#444" font-size="12" textLength="75.416" font-weight="700">[container]</text></g><!--entity api--><g class="entity" data-qualified-name="command.api" id="ent0002" data-source-line="83"><rect x="116.5" y="255.297" width="200.742" height="101.484" fill="#85BBF0" style="stroke:#78A8D8;stroke-width:0.5;"/><text x="175.582" y="280.148" fill="#000" font-size="16" textLength="46.945" font-weight="700">HTTP</text><text x="222.527" y="280.148" fill="#000" font-size="16" font-weight="700"> </text><text x="228.098" y="280.148" fill="#000" font-size="16" textLength="30.063" font-weight="700">API</text><text x="191.38" y="295.061" fill="#000" font-size="12" textLength="34.852" font-style="italic">[Fiber</text><text x="226.231" y="295.061" fill="#000" font-size="12" font-style="italic"> </text><text x="230.046" y="295.061" fill="#000" font-size="12" textLength="12.316" font-style="italic">3]</text><text x="214.646" y="310.886" fill="#000" font-size="14"> </text><text x="126.5" y="327.183" fill="#000" font-size="14" textLength="51.153">Ручная</text><text x="177.653" y="327.183" fill="#000" font-size="14"> </text><text x="182.104" y="327.183" fill="#000" font-size="14" textLength="63.574">команда</text><text x="245.678" y="327.183" fill="#000" font-size="14"> </text><text x="250.128" y="327.183" fill="#000" font-size="14">и</text><text x="259.227" y="327.183" fill="#000" font-size="14"> </text><text x="263.677" y="327.183" fill="#000" font-size="14" textLength="43.565">вызов</text><text x="171.296" y="343.479" fill="#000" font-size="14" textLength="16.721">от</text><text x="188.017" y="343.479" fill="#000" font-size="14"> </text><text x="192.467" y="343.479" fill="#000" font-size="14" textLength="69.979">сценария</text></g><!--entity handler--><g class="entity" data-qualified-name="command.handler" id="ent0003" data-source-line="83"><rect x="23.5" y="431.297" width="206.789" height="101.484" fill="#85BBF0" style="stroke:#78A8D8;stroke-width:0.5;"/><text x="33.5" y="456.148" fill="#000" font-size="16" textLength="111.516" font-weight="700">Обработчик</text><text x="145.016" y="456.148" fill="#000" font-size="16" font-weight="700"> </text><text x="150.586" y="456.148" fill="#000" font-size="16" textLength="69.703" font-weight="700">команд</text><text x="113.893" y="471.061" fill="#000" font-size="12" textLength="26.004" font-style="italic">[Go]</text><text x="124.669" y="486.886" fill="#000" font-size="14"> </text><text x="70.132" y="503.183" fill="#000" font-size="14" textLength="17.438">on</text><text x="87.571" y="503.183" fill="#000" font-size="14"> </text><text x="92.021" y="503.183" fill="#000" font-size="14">/</text><text x="96.738" y="503.183" fill="#000" font-size="14"> </text><text x="101.188" y="503.183" fill="#000" font-size="14" textLength="18.423">off</text><text x="119.611" y="503.183" fill="#000" font-size="14"> </text><text x="124.061" y="503.183" fill="#000" font-size="14">/</text><text x="128.778" y="503.183" fill="#000" font-size="14"> </text><text x="133.228" y="503.183" fill="#000" font-size="14" textLength="28.26">lock</text><text x="161.488" y="503.183" fill="#000" font-size="14"> </text><text x="165.938" y="503.183" fill="#000" font-size="14" textLength="17.719">по</text><text x="85.787" y="519.479" fill="#000" font-size="14" textLength="82.216">DeviceType</text></g><!--entity acl--><g class="entity" data-qualified-name="command.acl" id="ent0004" data-source-line="83"><rect x="266" y="431.297" width="210.032" height="101.484" fill="#85BBF0" style="stroke:#78A8D8;stroke-width:0.5;"/><text x="299.375" y="456.148" fill="#000" font-size="16" textLength="89.922" font-weight="700">Проверка</text><text x="389.297" y="456.148" fill="#000" font-size="16" font-weight="700"> </text><text x="394.868" y="456.148" fill="#000" font-size="16" textLength="47.789" font-weight="700">дома</text><text x="358.014" y="471.061" fill="#000" font-size="12" textLength="26.004" font-style="italic">[Go]</text><text x="368.791" y="486.886" fill="#000" font-size="14"> </text><text x="276" y="503.183" fill="#000" font-size="14" textLength="83.604">Устройство</text><text x="359.604" y="503.183" fill="#000" font-size="14"> </text><text x="364.054" y="503.183" fill="#000" font-size="14" textLength="101.979">принадлежит</text><text x="321.736" y="519.479" fill="#000" font-size="14" textLength="37.092">дому</text><text x="358.828" y="519.479" fill="#000" font-size="14"> </text><text x="363.278" y="519.479" fill="#000" font-size="14" textLength="57.019">жильца</text></g><!--entity adapter--><g class="entity" data-qualified-name="command.adapter" id="ent0005" data-source-line="83"><rect x="23" y="621.297" width="212.069" height="101.484" fill="#85BBF0" style="stroke:#78A8D8;stroke-width:0.5;"/><text x="43.515" y="646.148" fill="#000" font-size="16" textLength="78.734" font-weight="700">Адаптер</text><text x="122.25" y="646.148" fill="#000" font-size="16" font-weight="700"> </text><text x="127.82" y="646.148" fill="#000" font-size="16" textLength="86.734" font-weight="700">партнёра</text><text x="116.033" y="661.061" fill="#000" font-size="12" textLength="26.004" font-style="italic">[Go]</text><text x="126.81" y="676.886" fill="#000" font-size="14"> </text><text x="33" y="693.183" fill="#000" font-size="14" textLength="38.951">Один</text><text x="71.951" y="693.183" fill="#000" font-size="14"> </text><text x="76.401" y="693.183" fill="#000" font-size="14" textLength="45.835">выход</text><text x="122.236" y="693.183" fill="#000" font-size="14"> </text><text x="126.687" y="693.183" fill="#000" font-size="14" textLength="17.732">на</text><text x="144.419" y="693.183" fill="#000" font-size="14"> </text><text x="148.869" y="693.183" fill="#000" font-size="14" textLength="31.555">heat</text><text x="180.424" y="693.183" fill="#000" font-size="14"> </text><text x="184.874" y="693.183" fill="#000" font-size="14">/</text><text x="189.591" y="693.183" fill="#000" font-size="14"> </text><text x="194.041" y="693.183" fill="#000" font-size="14" textLength="31.028">light</text><text x="94.858" y="709.479" fill="#000" font-size="14">/</text><text x="99.575" y="709.479" fill="#000" font-size="14"> </text><text x="104.025" y="709.479" fill="#000" font-size="14" textLength="31.568">gate</text><text x="135.594" y="709.479" fill="#000" font-size="14"> </text><text x="140.044" y="709.479" fill="#000" font-size="14">/</text><text x="144.761" y="709.479" fill="#000" font-size="14"> </text><text x="149.211" y="709.479" fill="#000" font-size="14">…</text></g><!--entity repo--><g class="entity" data-qualified-name="command.repo" id="ent0006" data-source-line="83"><rect x="270" y="621.297" width="195.636" height="101.484" fill="#85BBF0" style="stroke:#78A8D8;stroke-width:0.5;"/><text x="330.298" y="646.148" fill="#000" font-size="16" textLength="75.039" font-weight="700">Журнал</text><text x="351.968" y="661.061" fill="#000" font-size="12" textLength="31.699" font-style="italic">[pgx]</text><text x="365.593" y="676.886" fill="#000" font-size="14"> </text><text x="280" y="693.183" fill="#000" font-size="14" textLength="26.66">Кто</text><text x="306.66" y="693.183" fill="#000" font-size="14"> </text><text x="311.11" y="693.183" fill="#000" font-size="14" textLength="24.992">что</text><text x="336.103" y="693.183" fill="#000" font-size="14"> </text><text x="340.553" y="693.183" fill="#000" font-size="14" textLength="69.638">отправил</text><text x="410.19" y="693.183" fill="#000" font-size="14"> </text><text x="414.641" y="693.183" fill="#000" font-size="14">и</text><text x="423.739" y="693.183" fill="#000" font-size="14"> </text><text x="428.189" y="693.183" fill="#000" font-size="14" textLength="27.446">чем</text><text x="329.314" y="709.479" fill="#000" font-size="14" textLength="77.007">кончилось</text></g><!--entity db--><g class="entity" data-qualified-name="db" id="ent0007" data-source-line="92"><path d="M299.5,823.297 C299.5,813.297 368.004,813.297 368.004,813.297 C368.004,813.297 436.508,813.297 436.508,823.297 L436.508,864.891 C436.508,874.891 368.004,874.891 368.004,874.891 C368.004,874.891 299.5,874.891 299.5,864.891 L299.5,823.297" style="stroke:#A6A6A6;stroke-width:0.5;" fill="#B3B3B3"/><path d="M299.5,823.297 C299.5,833.297 368.004,833.297 368.004,833.297 C368.004,833.297 436.508,833.297 436.508,823.297" style="stroke:#A6A6A6;stroke-width:0.5;" fill="none"/><text x="309.5" y="852.148" fill="#FFF" font-size="16" textLength="117.008" font-weight="700">pg-command</text><text x="328.714" y="867.061" fill="#FFF" font-size="12" textLength="78.58" font-style="italic">[PostgreSQL]</text></g><!--entity gw--><g class="entity" data-qualified-name="gw" id="ent0008" data-source-line="88"><rect x="48" y="60.297" width="134.07" height="52.594" fill="#B3B3B3" style="stroke:#A6A6A6;stroke-width:0.5;"/><text x="58" y="85.148" fill="#FFF" font-size="16" textLength="30.063" font-weight="700">API</text><text x="88.063" y="85.148" fill="#FFF" font-size="16" font-weight="700"> </text><text x="93.633" y="85.148" fill="#FFF" font-size="16" textLength="78.438" font-weight="700">Gateway</text><text x="70.46" y="100.061" fill="#FFF" font-size="12" textLength="43.219" font-style="italic">[HTTPS</text><text x="113.679" y="100.061" fill="#FFF" font-size="12" font-style="italic"> </text><text x="117.493" y="100.061" fill="#FFF" font-size="12" font-style="italic">/</text><text x="121.536" y="100.061" fill="#FFF" font-size="12" font-style="italic"> </text><text x="125.351" y="100.061" fill="#FFF" font-size="12" textLength="34.26" font-style="italic">JSON]</text></g><!--entity device--><g class="entity" data-qualified-name="device" id="ent0009" data-source-line="88"><rect x="508" y="621.297" width="155.529" height="101.484" fill="#B3B3B3" style="stroke:#A6A6A6;stroke-width:0.5;"/><text x="556.487" y="646.148" fill="#FFF" font-size="16" textLength="58.555" font-weight="700">device</text><text x="572.763" y="661.061" fill="#FFF" font-size="12" textLength="26.004" font-style="italic">[Go]</text><text x="583.54" y="676.886" fill="#FFF" font-size="14"> </text><text x="518" y="693.183" fill="#FFF" font-size="14" textLength="31.254">Тип,</text><text x="549.254" y="693.183" fill="#FFF" font-size="14"> </text><text x="553.704" y="693.183" fill="#FFF" font-size="14" textLength="47.906">адрес,</text><text x="601.61" y="693.183" fill="#FFF" font-size="14"> </text><text x="606.061" y="693.183" fill="#FFF" font-size="14" textLength="47.469">status,</text><text x="554.767" y="709.479" fill="#FFF" font-size="14" textLength="61.995">house_id</text></g><!--entity scenario--><g class="entity" data-qualified-name="scenario" id="ent0010" data-source-line="88"><rect x="217" y="44.297" width="205.944" height="85.188" fill="#B3B3B3" style="stroke:#A6A6A6;stroke-width:0.5;"/><text x="281.765" y="69.148" fill="#FFF" font-size="16" textLength="76.414" font-weight="700">scenario</text><text x="306.97" y="84.061" fill="#FFF" font-size="12" textLength="26.004" font-style="italic">[Go]</text><text x="317.747" y="99.886" fill="#FFF" font-size="14"> </text><text x="227" y="116.183" fill="#FFF" font-size="14" textLength="98.123">Автокоманда</text><text x="325.123" y="116.183" fill="#FFF" font-size="14"> </text><text x="329.573" y="116.183" fill="#FFF" font-size="14" textLength="17.719">по</text><text x="347.292" y="116.183" fill="#FFF" font-size="14"> </text><text x="351.742" y="116.183" fill="#FFF" font-size="14" textLength="61.202">правилу</text></g><!--entity partner--><g class="entity" data-qualified-name="partner" id="ent0011" data-source-line="419"><rect x="67" y="815.797" width="124.43" height="57.25" fill="#999" style="stroke:#8A8A8A;stroke-width:0.5;"/><text x="77" y="840.648" fill="#FFF" font-size="16" textLength="104.43" font-weight="700">Устройства</text><text x="80.688" y="859.273" fill="#FFF" font-size="16" textLength="97.055" font-weight="700">партнёров</text></g><!--link gw to api--><g class="link" data-entity-1="ent0008" data-entity-2="ent0002" id="lnk12" data-source-line="1803" data-link-type="dependency"><path d="M124.78,113.697 C132.7,134.167 144.41,163.347 156,188.297 C166.34,210.557 174.986,227.608 185.906,248.088" style="stroke:#666;stroke-width:1;" fill="none" id="gw-to-api"/><polygon points="189.67,255.147,188.553,246.676,183.259,249.499,189.67,255.147" fill="#666" style="stroke:#666;stroke-width:1;stroke-linejoin:miter;stroke-miterlimit:10;"/><text x="157" y="171.436" fill="#666" font-size="12" textLength="62.039" font-weight="700">Команда</text><text x="219.039" y="171.436" fill="#666" font-size="12" font-weight="700"> </text><text x="223.217" y="171.436" fill="#666" font-size="12" textLength="53.719" font-weight="700">жильца</text><text x="180.13" y="185.404" fill="#666" font-size="12" textLength="35.602" font-style="italic">[HTTP</text><text x="215.731" y="185.404" fill="#666" font-size="12" font-style="italic"> </text><text x="219.546" y="185.404" fill="#666" font-size="12" textLength="34.26" font-style="italic">JSON]</text></g><!--link scenario to api--><g class="link" data-entity-1="ent0010" data-entity-2="ent0002" id="lnk13" data-source-line="1803" data-link-type="dependency"><path d="M305.27,129.387 C298.43,147.687 289.86,169.297 281,188.297 C270.57,210.677 261.592,227.724 250.122,248.114" style="stroke:#666;stroke-width:1;" fill="none" id="scenario-to-api"/><polygon points="246.2,255.087,252.737,249.585,247.508,246.644,246.2,255.087" fill="#666" style="stroke:#666;stroke-width:1;stroke-linejoin:miter;stroke-miterlimit:10;"/><text x="293" y="171.436" fill="#666" font-size="12" textLength="62.039" font-weight="700">Команда</text><text x="355.039" y="171.436" fill="#666" font-size="12" font-weight="700"> </text><text x="359.217" y="171.436" fill="#666" font-size="12" textLength="65.238" font-weight="700">сценария</text><text x="321.89" y="185.404" fill="#666" font-size="12" textLength="35.602" font-style="italic">[HTTP</text><text x="357.491" y="185.404" fill="#666" font-size="12" font-style="italic"> </text><text x="361.306" y="185.404" fill="#666" font-size="12" textLength="34.26" font-style="italic">JSON]</text></g><!--link api to acl--><g class="link" data-entity-1="ent0002" data-entity-2="ent0004" id="lnk14" data-source-line="1803" data-link-type="dependency"><path d="M261.13,356.657 C281.84,380.057 301.147,401.877 321.827,425.237" style="stroke:#666;stroke-width:1;" fill="none" id="api-to-acl"/><polygon points="327.13,431.227,324.073,423.248,319.581,427.225,327.13,431.227" fill="#666" style="stroke:#666;stroke-width:1;stroke-linejoin:miter;stroke-miterlimit:10;"/><text x="299" y="398.436" fill="#666" font-size="12" textLength="30.961" font-weight="700">Этот</text><text x="329.961" y="398.436" fill="#666" font-size="12" font-weight="700"> </text><text x="334.139" y="398.436" fill="#666" font-size="12" textLength="27.744" font-weight="700">дом</text><text x="361.883" y="398.436" fill="#666" font-size="12" font-weight="700"> </text><text x="366.061" y="398.436" fill="#666" font-size="12" textLength="22.652" font-weight="700">его</text></g><!--link acl to device--><g class="link" data-entity-1="ent0004" data-entity-2="ent0009" id="lnk15" data-source-line="1803" data-link-type="dependency"><path d="M427.77,532.437 C459.12,559.857 491.917,588.531 523.267,615.941" style="stroke:#666;stroke-width:1;" fill="none" id="acl-to-device"/><polygon points="529.29,621.207,525.242,613.683,521.293,618.2,529.29,621.207" fill="#666" style="stroke:#666;stroke-width:1;stroke-linejoin:miter;stroke-miterlimit:10;"/><text x="492" y="574.436" fill="#666" font-size="12" textLength="26.244" font-weight="700">Чей</text><text x="518.244" y="574.436" fill="#666" font-size="12" font-weight="700"> </text><text x="522.422" y="574.436" fill="#666" font-size="12" textLength="62.619" font-weight="700">device_id</text><text x="501.683" y="588.404" fill="#666" font-size="12" textLength="35.602" font-style="italic">[HTTP</text><text x="537.284" y="588.404" fill="#666" font-size="12" font-style="italic"> </text><text x="541.099" y="588.404" fill="#666" font-size="12" textLength="34.26" font-style="italic">JSON]</text></g><!--link api to handler--><g class="link" data-entity-1="ent0002" data-entity-2="ent0003" id="lnk16" data-source-line="1803" data-link-type="dependency"><path d="M191.21,356.657 C179.11,380.057 168.395,400.761 156.315,424.121" style="stroke:#666;stroke-width:1;" fill="none" id="api-to-handler"/><polygon points="152.64,431.227,158.98,425.499,153.65,422.743,152.64,431.227" fill="#666" style="stroke:#666;stroke-width:1;stroke-linejoin:miter;stroke-miterlimit:10;"/><text x="176" y="398.436" fill="#666" font-size="12" textLength="76.564" font-weight="700">Выполнить</text></g><!--link handler to adapter--><g class="link" data-entity-1="ent0003" data-entity-2="ent0005" id="lnk17" data-source-line="1803" data-link-type="dependency"><path d="M127.53,532.687 C127.82,559.987 128.095,585.717 128.385,613.007" style="stroke:#666;stroke-width:1;" fill="none" id="handler-to-adapter"/><polygon points="128.47,621.007,131.385,612.975,125.385,613.039,128.47,621.007" fill="#666" style="stroke:#666;stroke-width:1;stroke-linejoin:miter;stroke-miterlimit:10;"/><text x="130" y="581.436" fill="#666" font-size="12" textLength="18.287" font-weight="700">По</text><text x="148.287" y="581.436" fill="#666" font-size="12" font-weight="700"> </text><text x="152.465" y="581.436" fill="#666" font-size="12" textLength="31.477" font-weight="700">типу</text><text x="183.941" y="581.436" fill="#666" font-size="12" font-weight="700"> </text><text x="188.119" y="581.436" fill="#666" font-size="12" textLength="58.6" font-weight="700">прибора</text></g><!--link adapter to partner--><g class="link" data-entity-1="ent0005" data-entity-2="ent0011" id="lnk18" data-source-line="1803" data-link-type="dependency"><path d="M129,722.567 C129,752.847 129,782.387 129,807.487" style="stroke:#666;stroke-width:1;" fill="none" id="adapter-to-partner"/><polygon points="129,815.487,132,807.487,126,807.487,129,815.487" fill="#666" style="stroke:#666;stroke-width:1;stroke-linejoin:miter;stroke-miterlimit:10;"/><text x="165.271" y="766.436" fill="#666" font-size="12" textLength="62.039" font-weight="700">Команда</text><text x="130" y="780.404" fill="#666" font-size="12" textLength="64.078" font-style="italic">[протокол</text><text x="194.078" y="780.404" fill="#666" font-size="12" font-style="italic"> </text><text x="197.893" y="780.404" fill="#666" font-size="12" textLength="64.688" font-style="italic">партнёра]</text></g><!--link handler to repo--><g class="link" data-entity-1="ent0003" data-entity-2="ent0006" id="lnk19" data-source-line="1803" data-link-type="dependency"><path d="M212.35,532.327 C226.94,541.767 241.68,551.947 255,562.297 C277.87,580.067 295.588,596.195 315.118,615.555" style="stroke:#666;stroke-width:1;" fill="none" id="handler-to-repo"/><polygon points="320.8,621.187,317.23,613.424,313.006,617.685,320.8,621.187" fill="#666" style="stroke:#666;stroke-width:1;stroke-linejoin:miter;stroke-miterlimit:10;"/><text x="288" y="581.436" fill="#666" font-size="12" textLength="46.289" font-weight="700">Пишет</text><text x="334.289" y="581.436" fill="#666" font-size="12" font-weight="700"> </text><text x="338.467" y="581.436" fill="#666" font-size="12" textLength="53.531" font-weight="700">журнал</text></g><!--link repo to db--><g class="link" data-entity-1="ent0006" data-entity-2="ent0007" id="lnk20" data-source-line="1803" data-link-type="dependency"><path d="M368,722.567 C368,751.957 368,780.197 368,805.257" style="stroke:#666;stroke-width:1;" fill="none" id="repo-to-db"/><polygon points="368,813.257,371,805.257,365,805.257,368,813.257" fill="#666" style="stroke:#666;stroke-width:1;stroke-linejoin:miter;stroke-miterlimit:10;"/><text x="369" y="773.436" fill="#666" font-size="12" textLength="26.49" font-weight="700">SQL</text></g><g class="legend" data-source-line="1577"><rect x="486.083" y="912.891" width="167.446" height="16.297" fill="none" style="stroke:none;"/><text x="486.083" y="925.886" fill="#000" font-size="14" textLength="57.921" font-weight="700">Legend</text><text x="548.878" y="925.886" fill="#FFF" font-size="14"> </text><rect x="486.083" y="929.188" width="167.446" height="16.297" fill="#85BBF0" style="stroke:none;"/><text x="490.533" y="942.183" fill="#78A8D8" font-size="14">▯</text><text x="498.237" y="942.183" fill="#FFF" font-size="14"> </text><text x="507.138" y="942.183" fill="#000" font-size="14" textLength="79.201">component</text><text x="590.789" y="942.183" fill="#FFF" font-size="14"> </text><rect x="486.083" y="945.484" width="167.446" height="16.297" fill="#999" style="stroke:none;"/><text x="490.533" y="958.479" fill="#8A8A8A" font-size="14">▯</text><text x="498.237" y="958.479" fill="#FFF" font-size="14"> </text><text x="507.138" y="958.479" fill="#FFF" font-size="14" textLength="113.162">external system</text><text x="624.75" y="958.479" fill="#FFF" font-size="14"> </text><rect x="486.083" y="961.781" width="167.446" height="16.297" fill="#B3B3B3" style="stroke:none;"/><text x="490.533" y="974.776" fill="#A6A6A6" font-size="14">▯</text><text x="498.237" y="974.776" fill="#FFF" font-size="14"> </text><text x="507.138" y="974.776" fill="#FFF" font-size="14" textLength="128.885">external container</text><text x="640.473" y="974.776" fill="#FFF" font-size="14"> </text><rect x="486.083" y="978.078" width="167.446" height="16.297" fill="none" style="stroke:none;"/><text x="490.533" y="991.073" fill="#444" font-size="14">▯</text><text x="498.237" y="991.073" fill="#FFF" font-size="14"> </text><text x="507.138" y="991.073" fill="#444" font-size="14" textLength="137.491">container boundary</text><text x="649.079" y="991.073" fill="#FFF" font-size="14"> </text><line x1="486.083" y1="912.891" x2="653.529" y2="912.891" style="stroke:none;"/><line x1="486.083" y1="929.188" x2="653.529" y2="929.188" style="stroke:none;"/><line x1="486.083" y1="945.484" x2="653.529" y2="945.484" style="stroke:none;"/><line x1="486.083" y1="961.781" x2="653.529" y2="961.781" style="stroke:none;"/><line x1="486.083" y1="978.078" x2="653.529" y2="978.078" style="stroke:none;"/><line x1="486.083" y1="994.375" x2="653.529" y2="994.375" style="stroke:none;"/><line x1="486.083" y1="912.891" x2="486.083" y2="994.375" style="stroke:none;"/><line x1="653.529" y1="912.891" x2="653.529" y2="994.375" style="stroke:none;"/></g><?plantuml-src TLHDJnDH5DttLpoxAWdGXQxSAI1e4Ah5k6nUEuzsudHcClCgDCQab2Wcae36k601HXDTcHIa29IMl_3UN-2NUEwRQHaws4NVrxtdtdlkkNF7TYjEmnAi9gKVti_d0xusNRLbhL5kX2AeUAuKhfokUFMyxt1NDkhEL2WjnoxdP-vD5UZgnTF5V9s7KWIuAiruTTzpoSU7RIOZRUa8DhfbLwql36XrxbgPp0pWkUsAeFJGQxWM3vgv-6sIPUDTTeAzoJ3yHXWvxjjuNrXPAR07XSTPx1_PPH6mkxHLt_Ictb9zrT4xJ9shWRfG7HoFLOUfKwQEz4Vr5xT7J0rqc-aD_LvrZNbBdUgTxCHOi1foS4H0oFlg44OTTKYUY76gpcz4eF3p7lrxBiipRtKL_uvNUSNKfHgmMV7QheYLfYzIGNZ5eG07W4TcgelrdF8zZi2lWTKF9DmsPcUqW_40w9GxrG277gevGINjs5jlCZghdjv6fPrqQ8lxCgflbqW2M9iIe9p12Gvz_OdAJYIn3qF4CsJgTuXop2WwgmakgMIxMgErogN0SjNwcOeQ2DyZfAzeLijatYDalxfk0kmXx83fBRCGswR43gf58TH6iDzL5n7xVTEA7imsz3OYlKq8QxPScbkNEQjimAU6ciAfu8Mo6eZYiqMuN0kHhAjhU8Uos3mAMEFDRAos8efvKbnUIZbOfhEmYZO9fhuZiyj9Hfr10LszCSb2oMKZd6Gr3nDMigqKMbWHBWziucUuJI3kWdImCgxiow4EOfBq9d2BJOnbtO3wF91krEQqX3hZpOO8uPvvBXn3HZHmQkzcoAIgXlCOqqEErsNSwfuQl5iWZ6Cy6x-fwf6g6Lp_gC7GZan6JL2_y7WMdudW_o4dHliplWgW42hgq-mO7P7To2Gn9WSapJOrbcOhcZtw9BJCT1dqeN62zHlLcqwIvs3KorvwuCPI6CxC0JBy02s1YvF4-4JMaP7HUoJjJ75X-MLfSMv-RcasD_4F?></g></svg>